<svg xmlns="http://www.w3.org/2000/svg" xmlns:xlink="http://www.w3.org/1999/xlink" viewBox="0 0 452.03 453.63"><defs><style>.cls-1{isolation:isolate;}.cls-2{fill:#eb3725;}.cls-19,.cls-21,.cls-3{opacity:0.7;}.cls-15,.cls-18,.cls-20,.cls-21,.cls-3,.cls-8{mix-blend-mode:multiply;}.cls-4{fill:url(#linear-gradient);}.cls-5{fill:#729342;}.cls-6{fill:url(#linear-gradient-2);}.cls-7{fill:#018f9b;}.cls-20,.cls-8{opacity:0.3;}.cls-9{fill:url(#linear-gradient-3);}.cls-10{fill:#f0b01d;}.cls-11{fill:#007948;}.cls-12{fill:#fff;}.cls-13{fill:#ec1c24;}.cls-14{fill:#00a4b5;}.cls-15{opacity:0.5;}.cls-16{fill:url(#linear-gradient-4);}.cls-17{fill:#facc11;}.cls-18{opacity:0.9;fill:url(#linear-gradient-5);}.cls-19{fill:url(#linear-gradient-6);}.cls-20{fill:url(#linear-gradient-7);}.cls-21{fill:url(#linear-gradient-8);}.cls-22{fill:#2276b9;}</style><linearGradient id="linear-gradient" x1="757.86" y1="399.65" x2="771.38" y2="413.17" gradientTransform="matrix(-0.71, -0.71, -0.71, 0.71, 1034.84, 470.31)" gradientUnits="userSpaceOnUse"><stop offset="0"/><stop offset="0.11" stop-color="#333"/><stop offset="0.24" stop-color="#696969"/><stop offset="0.37" stop-color="#979797"/><stop offset="0.5" stop-color="#bcbcbc"/><stop offset="0.63" stop-color="#dadada"/><stop offset="0.76" stop-color="#eee"/><stop offset="0.88" stop-color="#fbfbfb"/><stop offset="1" stop-color="#fff"/></linearGradient><linearGradient id="linear-gradient-2" x1="236.56" y1="215.92" x2="236.56" y2="185.94" gradientTransform="matrix(1, 0, 0, 1, 0, 0)" xlink:href="#linear-gradient"/><linearGradient id="linear-gradient-3" x1="742.12" y1="412.78" x2="734.06" y2="420.84" xlink:href="#linear-gradient"/><linearGradient id="linear-gradient-4" x1="236.97" y1="237.66" x2="266.38" y2="237.66" gradientUnits="userSpaceOnUse"><stop offset="0" stop-color="#f05a28"/><stop offset="0.03" stop-color="#f16333"/><stop offset="0.17" stop-color="#f58c69"/><stop offset="0.31" stop-color="#f8af97"/><stop offset="0.45" stop-color="#faccbc"/><stop offset="0.59" stop-color="#fce2da"/><stop offset="0.73" stop-color="#fef2ee"/><stop offset="0.87" stop-color="#fffcfb"/><stop offset="1" stop-color="#fff"/></linearGradient><linearGradient id="linear-gradient-5" x1="742.6" y1="423.53" x2="742.6" y2="543.52" gradientTransform="matrix(-1, 0, 0, 1, 909.76, -196.68)" gradientUnits="userSpaceOnUse"><stop offset="0"/><stop offset="0.05" stop-color="#1d1d1d"/><stop offset="0.18" stop-color="#616161"/><stop offset="0.3" stop-color="#999"/><stop offset="0.41" stop-color="#c5c5c5"/><stop offset="0.51" stop-color="#e5e5e5"/><stop offset="0.59" stop-color="#f8f8f8"/><stop offset="0.65" stop-color="#fff"/></linearGradient><linearGradient id="linear-gradient-6" x1="618.25" y1="-263.13" x2="618.25" y2="-143.14" gradientTransform="matrix(-1, 0, 0, 1, 903.8, 368.3)" gradientUnits="userSpaceOnUse"><stop offset="0" stop-color="#f9cd16"/><stop offset="0.05" stop-color="#ccbf1f"/><stop offset="0.12" stop-color="#96ae2a"/><stop offset="0.18" stop-color="#689f34"/><stop offset="0.25" stop-color="#43933b"/><stop offset="0.31" stop-color="#258a41"/><stop offset="0.38" stop-color="#118346"/><stop offset="0.44" stop-color="#047f48"/><stop offset="0.5" stop-color="#007e49"/></linearGradient><linearGradient id="linear-gradient-7" x1="295.19" y1="121.48" x2="295.19" y2="241.47" gradientTransform="matrix(-1, 0, 0, 1, 460.19, -14.61)" xlink:href="#linear-gradient"/><linearGradient id="linear-gradient-8" x1="1022.56" y1="42" x2="1022.56" y2="161.99" gradientTransform="matrix(-1, 0, 0, 1, 1310.28, 183.2)" xlink:href="#linear-gradient"/></defs><g class="cls-1"><g id="Layer_2" data-name="Layer 2"><g id="Layer_1-2" data-name="Layer 1"><polygon class="cls-2" points="193.28 227.91 189.68 224.31 216.35 196.97 216.35 236.69 180.92 240.26 193.28 227.91"/><g class="cls-3"><polygon class="cls-4" points="193.28 227.91 189.68 224.31 216.35 196.97 216.35 236.69 184.12 237.06 193.28 227.91"/></g><polygon class="cls-5" points="225.03 192.66 228.53 189.16 256.78 217.41 216.35 217.41 216.35 194.62 212.61 181.26 225.03 192.66"/><g class="cls-3"><polygon class="cls-6" points="225.03 192.66 228.53 189.16 256.78 217.41 216.35 217.41 216.35 184.32 225.03 192.66"/></g><polygon class="cls-7" points="228.37 260.63 224.68 264.32 196.91 236.55 236.63 236.55 239.57 271.83 228.37 260.63"/><g class="cls-8"><polygon class="cls-9" points="228.37 260.63 224.68 264.32 196.91 236.55 236.63 236.55 239.49 271.75 228.37 260.63"/></g><polygon class="cls-10" points="272.07 213.89 259.44 226.14 263.01 229.71 236.38 257.92 236.18 217.41 259.87 217.45 272.07 213.89"/><path class="cls-11" d="M241.52,209.73a24.73,24.73,0,0,0,35,0l52.91-52.91a24.42,24.42,0,1,0-34.54-34.54l-70.38,70.39Z"/><path class="cls-12" d="M329,122.64a23.92,23.92,0,0,1,0,33.83l-52.9,52.9a24.21,24.21,0,0,1-34.25,0l-16.7-16.7,70-70a23.93,23.93,0,0,1,33.82,0m.72-.71a25,25,0,0,0-35.25,0l-70,70-.71.71.71.72,16.7,16.69a25.24,25.24,0,0,0,35.67,0l52.91-52.9a25,25,0,0,0,0-35.25Z"/><path class="cls-13" d="M191.56,228.91l17.06-17.06a24.75,24.75,0,0,0,0-35L155.71,124a24.42,24.42,0,1,0-34.53,34.53Z"/><path class="cls-12" d="M155.35,124.35l52.91,52.9a24.21,24.21,0,0,1,0,34.25l-16.7,16.7-70-70a23.91,23.91,0,0,1,0-33.82h0a23.91,23.91,0,0,1,33.82,0m.72-.72a24.93,24.93,0,0,0-35.25,35.25l70,70,.71.71.71-.71,16.7-16.7a25.24,25.24,0,0,0,0-35.67l-52.9-52.91Z"/><path class="cls-14" d="M123.34,331.61a24.43,24.43,0,0,0,34.53,0l70.39-70.39L211.2,244.18a24.75,24.75,0,0,0-35,0l-52.9,52.9A24.44,24.44,0,0,0,123.34,331.61Z"/><path class="cls-12" d="M210.84,244.53l16.7,16.7-70,70a23.91,23.91,0,1,1-33.82-33.82l52.9-52.91a24.22,24.22,0,0,1,34.24,0m.72-.71a25.24,25.24,0,0,0-35.67,0L123,296.72A24.93,24.93,0,1,0,158.23,332l70-70,.71-.71-.71-.71-16.7-16.7Z"/><g class="cls-15"><polygon class="cls-16" points="268.17 217.41 259.44 226.14 239.91 246.84 236.38 257.92 236.18 217.41 268.17 217.41"/></g><path class="cls-17" d="M297,330a24.42,24.42,0,0,0,34.54-34.54l-70.39-70.38L244.1,242.11a24.75,24.75,0,0,0,0,35Z"/><path class="cls-12" d="M261.16,225.77l70,70a23.91,23.91,0,0,1-33.82,33.82l-52.91-52.9a24.22,24.22,0,0,1,0-34.24l16.7-16.7m0-1.43-.71.71-16.7,16.7a25.26,25.26,0,0,0,0,35.67l52.91,52.91a24.92,24.92,0,0,0,35.24-35.25l-70-70-.72-.71Z"/><path class="cls-18" d="M167.46,226.32h23.62a0,0,0,0,1,0,0v99a23.92,23.92,0,0,1-23.92,23.92h0a23.92,23.92,0,0,1-23.92-23.92V250.53a24.21,24.21,0,0,1,24.21-24.21Z" transform="translate(252.46 -33.91) rotate(45)"/><path class="cls-19" d="M285.85,104.64h23.62a0,0,0,0,1,0,0v99a23.92,23.92,0,0,1-23.92,23.92h0a23.92,23.92,0,0,1-23.92-23.92V128.85a24.21,24.21,0,0,1,24.21-24.21Z" transform="translate(370.01 485.49) rotate(-135)"/><path class="cls-20" d="M165.3,106.34h23.62a0,0,0,0,1,0,0v99A23.92,23.92,0,0,1,165,229.29h0a23.92,23.92,0,0,1-23.92-23.92V130.56a24.21,24.21,0,0,1,24.21-24.21Z" transform="translate(400.34 169.81) rotate(135)"/><path class="cls-21" d="M288,224.67h23.62a0,0,0,0,1,0,0v99a23.92,23.92,0,0,1-23.92,23.92h0a23.92,23.92,0,0,1-23.92-23.92V248.89A24.21,24.21,0,0,1,288,224.67Z" transform="translate(-118.06 287.26) rotate(-45)"/><rect class="cls-12" x="198.78" y="183.85" width="34.69" height="1" transform="translate(238.59 467.53) rotate(-135)"/><rect class="cls-12" x="253.42" y="215.26" width="34.06" height="1" transform="translate(614.25 177.1) rotate(135)"/><rect class="cls-12" x="166.35" y="237.35" width="32.48" height="1" transform="translate(479.89 276.92) rotate(135)"/><rect class="cls-12" x="222.7" y="269.39" width="28.51" height="1" transform="translate(213.66 628.28) rotate(-135)"/></g><g id="Layer_2-2" data-name="Layer 2"><path class="cls-22" d="M31.75,298.67a9.41,9.41,0,0,1,1.92-3.59A9.19,9.19,0,0,1,42,292a9.4,9.4,0,0,1,4.71,2.35,14.36,14.36,0,0,1,3.57,5.22l5.17,12.21L22.76,325.66l-5-11.74a14.3,14.3,0,0,1-1.3-6.14A8.71,8.71,0,0,1,18,303a8.59,8.59,0,0,1,3.73-3,8,8,0,0,1,5.48-.46,9.5,9.5,0,0,1,4.51,3A7.52,7.52,0,0,1,31.75,298.67Zm3.33,16.73-3-7.19a7.52,7.52,0,0,0-3.38-4,5.31,5.31,0,0,0-4.59,0,5.27,5.27,0,0,0-3.2,3.3,7.76,7.76,0,0,0,.6,5.34l3,7.09Zm8.25-18.29a5.57,5.57,0,0,0-4.93,0,5.75,5.75,0,0,0-3.5,3.7,8.21,8.21,0,0,0,.56,5.69l3.14,7.41L50.15,309,47,301.45A8.15,8.15,0,0,0,43.33,297.11Z"/><path class="cls-22" d="M12.47,287.48l11.5-3-3.29-12.53,3.7-1,3.29,12.53,11.83-3.11-3.67-14,3.7-1,4.85,18.5-34.43,9L5.1,274.44l3.7-1Z"/><path class="cls-22" d="M36.9,254.82A10.55,10.55,0,0,1,34,259.55a8.9,8.9,0,0,1-4.91,2.22l-.57-4.92a6.49,6.49,0,0,0,3.94-2.54,7.4,7.4,0,0,0,1.08-5.44,7.68,7.68,0,0,0-2.25-5,5.33,5.33,0,0,0-4.45-1.4A4.8,4.8,0,0,0,23.65,244a7.21,7.21,0,0,0-1.6,3,41.88,41.88,0,0,0-.89,4.67A41.1,41.1,0,0,1,20,257.46a9.11,9.11,0,0,1-2.45,3.93,8.45,8.45,0,0,1-5.06,2.11,9.23,9.23,0,0,1-5.29-.87,9.69,9.69,0,0,1-3.93-3.73,14.66,14.66,0,0,1-1.93-6,12.9,12.9,0,0,1,1.54-8.42A9.22,9.22,0,0,1,9,240.18l.6,5.06a5.53,5.53,0,0,0-3.33,2.55,7.62,7.62,0,0,0-1,5.14,7.2,7.2,0,0,0,2,4.54,5.16,5.16,0,0,0,4.39,1.34,4.62,4.62,0,0,0,3-1.46,7.16,7.16,0,0,0,1.53-2.9,46.85,46.85,0,0,0,.92-4.65A43.82,43.82,0,0,1,18.48,244,9.45,9.45,0,0,1,21,240a8.4,8.4,0,0,1,5.11-2.14,9.35,9.35,0,0,1,5,.8,10.15,10.15,0,0,1,4.17,3.62,13.45,13.45,0,0,1,2.15,6.16A15,15,0,0,1,36.9,254.82Z"/><path class="cls-22" d="M.65,208.23l3.78.1L4.16,218l31.76.86-.12,4.64L4,222.66l-.27,9.73L0,232.29Z"/><path class="cls-22" d="M42.06,174.06a10.49,10.49,0,0,1-4.63,3.1,8.9,8.9,0,0,1-5.38,0l1.5-4.72a6.51,6.51,0,0,0,4.64-.69,7.42,7.42,0,0,0,3.22-4.52,7.74,7.74,0,0,0,0-5.48,5.38,5.38,0,0,0-3.48-3.11,4.82,4.82,0,0,0-3.5.07,7.13,7.13,0,0,0-2.7,2.08A44.19,44.19,0,0,0,29,164.69a40.93,40.93,0,0,1-3.46,4.82,9.07,9.07,0,0,1-3.84,2.58,8.47,8.47,0,0,1-5.49-.17,9,9,0,0,1-4.46-3,9.62,9.62,0,0,1-2-5,14.71,14.71,0,0,1,.7-6.22,12.88,12.88,0,0,1,4.86-7.05,9.24,9.24,0,0,1,7.4-1.42l-1.54,4.86a5.51,5.51,0,0,0-4.07.95,7.65,7.65,0,0,0-3,4.3,7.18,7.18,0,0,0,0,5,5.13,5.13,0,0,0,3.45,3,4.58,4.58,0,0,0,3.35-.09,7.08,7.08,0,0,0,2.59-2c.73-.9,1.65-2.18,2.75-3.86a42.24,42.24,0,0,1,3.54-4.82A9.45,9.45,0,0,1,33.62,154a8.48,8.48,0,0,1,5.54.16,9.26,9.26,0,0,1,4.25,2.79,10.21,10.21,0,0,1,2.32,5,13.47,13.47,0,0,1-.57,6.5A15.23,15.23,0,0,1,42.06,174.06Z"/><path class="cls-22" d="M51.7,144.77A16.92,16.92,0,0,1,43,147.46a18.49,18.49,0,0,1-9.39-2.26,18.52,18.52,0,0,1-7.18-6.45A17.13,17.13,0,0,1,23.67,130a18.81,18.81,0,0,1,8.43-16,16.84,16.84,0,0,1,8.71-2.68,18.68,18.68,0,0,1,9.39,2.29,18.67,18.67,0,0,1,7.22,6.45,16.88,16.88,0,0,1,2.71,8.69,18.8,18.8,0,0,1-8.43,16ZM56,129.24a12.15,12.15,0,0,0-2.19-6.45,15.63,15.63,0,0,0-5.79-5,15.59,15.59,0,0,0-7.41-2,12.29,12.29,0,0,0-6.53,1.84,13.93,13.93,0,0,0-6.27,11.91A12.27,12.27,0,0,0,30,136a15.64,15.64,0,0,0,5.82,5,15.68,15.68,0,0,0,7.38,2,12.23,12.23,0,0,0,6.57-1.85A13.87,13.87,0,0,0,56,129.24Z"/><path class="cls-22" d="M53,80.77l3,2.29-9.36,12.3,9.54,7.25,7.6-10,3,2.28-7.59,10L72,114.59l-2.81,3.69L40.84,96.77Z"/><path class="cls-22" d="M74.53,58.37,77.2,61l-6.83,6.88L92.91,90.3l-3.27,3.29L67.1,71.2l-6.86,6.91-2.68-2.66Z"/><path class="cls-22" d="M119.44,25.63l11.39,35.21-4.3,2.92L103.65,44.7l8.94,28.49-4.24,2.93L80.16,52.22l4.1-2.77,23.32,20.61L97.77,40.3l4.31-2.92,23.6,20.3L115.3,28.43Z"/><path class="cls-22" d="M159.43,39.27l-14.38,5.79.3,8.4-4.54,1.83L139.53,17.7l5-2,25.07,28L165,45.54Zm-2.64-3L144.12,22l.75,19.05Z"/><path class="cls-22" d="M192,38.7,180.62,26.34l-5.48,1.22,3.15,14.19-4.53,1-7.7-34.7,11.2-2.49a15.19,15.19,0,0,1,7-.12,9.53,9.53,0,0,1,4.86,2.73,10.29,10.29,0,0,1,2.5,4.93,10.47,10.47,0,0,1-.66,6.78,10.35,10.35,0,0,1-5.39,5L197.46,37.5Zm-17.7-14.78L181,22.44q3.69-.81,5.13-3a6.66,6.66,0,0,0,.76-5.26A6.34,6.34,0,0,0,184,9.76c-1.47-.86-3.44-1-5.93-.46l-6.67,1.48Z"/><path class="cls-22" d="M205.2,4.91l.9,11.85,12.91-1,.29,3.81-12.91,1,.92,12.2,14.44-1.09L222,35.5,203,36.94l-2.68-35.5L219.36,0l.28,3.81Z"/><path class="cls-22" d="M292.81,47.1l-3.12-5.81a17.6,17.6,0,0,1-6.46,2.25,16.39,16.39,0,0,1-6.78-.65,15.28,15.28,0,0,1-5.86-3.12,10.2,10.2,0,0,1-3.13-4.87A10.42,10.42,0,0,1,267.6,29a10.65,10.65,0,0,1,3.89-5.68,14,14,0,0,1,7.26-2.5,15.18,15.18,0,0,1-1.24-4.09,8.87,8.87,0,0,1,.34-3.62,7.32,7.32,0,0,1,2.25-3.56,7.76,7.76,0,0,1,4-1.78,11.33,11.33,0,0,1,5,.43,10.16,10.16,0,0,1,4.29,2.39,7.11,7.11,0,0,1,2.09,3.73,8.11,8.11,0,0,1-.33,4.34l-4.45-1.32a4.3,4.3,0,0,0-.19-3.49,4.36,4.36,0,0,0-2.69-2,4.64,4.64,0,0,0-3.48.16,3.78,3.78,0,0,0-2,2.46,5.61,5.61,0,0,0,0,3.07A21.13,21.13,0,0,0,284,21.66l7.14,13.24,1.29-1.11,5-4.59,4.8,1.42-6.07,5.76c-.85.81-1.8,1.64-2.87,2.5l5.4,9.95Zm-10.16-7.64a13.51,13.51,0,0,0,5-2l-7-13q-7,.54-8.51,5.72a6.5,6.5,0,0,0,.66,5.41,8,8,0,0,0,4.83,3.51A11.22,11.22,0,0,0,282.65,39.46Z"/><path class="cls-22" d="M372.79,56.48A15.23,15.23,0,0,1,374,65.4a19,19,0,0,1-4.2,8.8,18.86,18.86,0,0,1-7.71,5.93,15,15,0,0,1-8.93.65A22.38,22.38,0,0,1,344,76.09l-8.6-7L357.72,41.5l8.6,7A21.83,21.83,0,0,1,372.79,56.48Zm-16,20.41q5.1-.56,9.24-5.67t3.68-10.34q-.5-5.19-5.81-9.49l-5-4L341.38,69.08l5,4Q351.72,77.46,356.84,76.89Z"/><path class="cls-22" d="M388.47,73.76l-8.8,8,8.7,9.6-2.83,2.57-8.71-9.6-9.06,8.23,9.73,10.72-2.83,2.57L361.82,91.67l26.36-23.92L401,81.92l-2.83,2.57Z"/><path class="cls-22" d="M381.87,114a10.54,10.54,0,0,1,.42-5.56,9,9,0,0,1,3.33-4.23l2.78,4.1a6.44,6.44,0,0,0-2.32,4.07,7.43,7.43,0,0,0,1.54,5.33,7.68,7.68,0,0,0,4.31,3.39,5.38,5.38,0,0,0,4.6-.8,4.88,4.88,0,0,0,2.11-2.79,7.27,7.27,0,0,0,0-3.41,41.91,41.91,0,0,0-1.37-4.56,42.24,42.24,0,0,1-1.64-5.7,9.12,9.12,0,0,1,.35-4.61A8.45,8.45,0,0,1,399.54,95a9.08,9.08,0,0,1,5.09-1.66,9.55,9.55,0,0,1,5.2,1.49,14.59,14.59,0,0,1,4.47,4.4,12.83,12.83,0,0,1,2.52,8.17,9.19,9.19,0,0,1-3.47,6.7l-2.86-4.22a5.49,5.49,0,0,0,1.77-3.79,7.59,7.59,0,0,0-1.51-5A7.26,7.26,0,0,0,406.84,98a5.13,5.13,0,0,0-4.51.84,4.55,4.55,0,0,0-2,2.68,7,7,0,0,0,0,3.29c.25,1.12.69,2.64,1.33,4.55a42.35,42.35,0,0,1,1.6,5.76,9.47,9.47,0,0,1-.35,4.67,8.37,8.37,0,0,1-3.55,4.25,9.31,9.31,0,0,1-4.83,1.61,10.17,10.17,0,0,1-5.37-1.28,13.52,13.52,0,0,1-4.76-4.48A15.27,15.27,0,0,1,381.87,114Z"/><path class="cls-22" d="M427.48,122.25,396.1,138.94l-2.18-4.1,31.38-16.69Z"/><path class="cls-22" d="M432.77,161.2a11.18,11.18,0,0,0,3-5.7,12.39,12.39,0,0,0-.68-6.71,13.17,13.17,0,0,0-3.95-5.69,12,12,0,0,0-6.22-2.69,15.34,15.34,0,0,0-7.5,1,15.19,15.19,0,0,0-6.29,4.16,12.06,12.06,0,0,0-2.92,6.1,13.15,13.15,0,0,0,.74,6.88,12.12,12.12,0,0,0,5.91,6.94,12.78,12.78,0,0,0,9.25.74l-4.95-13.28,3.54-1.32,6.67,17.92-3.34,1.25a17.69,17.69,0,0,1-8.49.22,17,17,0,0,1-7.55-3.77,17.23,17.23,0,0,1-5-7.24,18,18,0,0,1-1-9.27,17,17,0,0,1,3.79-8.3,19.63,19.63,0,0,1,17.52-6.53,17,17,0,0,1,8.32,3.79,18,18,0,0,1,5.33,7.64,18.28,18.28,0,0,1,.87,10.38,16.11,16.11,0,0,1-5.19,8.71Z"/><path class="cls-22" d="M416.93,208.3l-.77-4.58L441,180.6l-27.91,4.71-.78-4.57,35.11-5.93.77,4.58L423.4,202.5l27.86-4.71.77,4.58Z"/><path class="cls-22" d="M422,262.75l2.22-15.35-7.41-4,.7-4.85,33.13,17.78-.76,5.3-36.82,7.61.71-4.85Zm3.92-.77,18.69-3.79-16.84-8.93Z"/><path class="cls-22" d="M427.33,306.94a11.17,11.17,0,0,0,5.95-2.5,12.35,12.35,0,0,0,3.73-5.62,13.23,13.23,0,0,0,.55-6.9,12,12,0,0,0-3.11-6,16.66,16.66,0,0,0-13.92-4.77A12.15,12.15,0,0,0,414.4,284a13.38,13.38,0,0,0-3.79,5.8,12.11,12.11,0,0,0,.17,9.11,12.89,12.89,0,0,0,6.69,6.44l4.59-13.41,3.57,1.22-6.19,18.09-3.38-1.15a17.73,17.73,0,0,1-6.71-5.21,17.05,17.05,0,0,1-3.45-7.7,17.23,17.23,0,0,1,.76-8.75,17.88,17.88,0,0,1,5.11-7.79,17.05,17.05,0,0,1,8.2-4,18.25,18.25,0,0,1,9.59.78,18.5,18.5,0,0,1,8.09,5.27,17,17,0,0,1,4,8.2,17.94,17.94,0,0,1-.73,9.29,18.16,18.16,0,0,1-5.9,8.58,16,16,0,0,1-9.53,3.44Z"/><path class="cls-22" d="M424.48,328.3,414,322.65,407.86,334l-3.36-1.82,6.17-11.39L399.9,315,393,327.74l-3.37-1.82,9.11-16.82L430.05,326,421,342.86,417.59,341Z"/><path class="cls-22" d="M369.81,353.13l2.82-3.69,33.82,2.35L384,334.61l2.82-3.69,28.29,21.61-2.82,3.69-33.78-2.32,22.45,17.15-2.82,3.69Z"/><path class="cls-22" d="M383.31,378.53a17.1,17.1,0,0,1-.41,9.12,17.69,17.69,0,0,1-5.13,7.76,18.25,18.25,0,0,1-9.42,4.7,16.06,16.06,0,0,1-10-1.69l4.13-3.72a11.17,11.17,0,0,0,6.47.84,12.39,12.39,0,0,0,6.11-3.16,12.9,12.9,0,0,0,3.81-5.76,12,12,0,0,0,.16-6.76,17.34,17.34,0,0,0-9.95-11.08,12.2,12.2,0,0,0-6.74-.56,13,13,0,0,0-6.13,3.18,12.5,12.5,0,0,0-3.81,5.72,11.14,11.14,0,0,0,.12,6.51l-4.13,3.71a15.92,15.92,0,0,1-.56-10.08,18.3,18.3,0,0,1,5.69-8.86,17.86,17.86,0,0,1,8.24-4.29,17,17,0,0,1,9.08.52,19.78,19.78,0,0,1,12.49,13.9Z"/><path class="cls-22" d="M334.51,425.87,332.6,401l-7.1-11.38,3.93-2.45,7.11,11.37,21.59,12.62-4.37,2.72-17-10.62,2.1,19.92Z"/><path class="cls-22" d="M270.15,420.43l15-4,.73-8.37,4.74-1.26-3.37,37.46-5.17,1.37-21.44-30.88,4.74-1.25Zm2.25,3.3,10.82,15.71,1.6-19Z"/><path class="cls-22" d="M214,453.63l8.55-36,5.2-.25,9.65,28.17,7.16-29,5.14-.3,11.68,35.07-4.94.24-9.22-29.73-7.09,30.53-5.19.25L225.28,423,219,453.39Z"/><path class="cls-22" d="M186.86,421.28l15.31,2.48,4.08-7.34,4.84.78L192.73,450l-5.28-.86-7-36.94,4.83.79Zm.71,3.94L191,444l9.22-16.69Z"/><path class="cls-22" d="M158.71,404.92l3.38,16.48,5.31,1.79L172,409.42l4.4,1.48-11.35,33.69-10.88-3.67a15.29,15.29,0,0,1-6-3.48,9.61,9.61,0,0,1-2.75-4.85,10.31,10.31,0,0,1,11.69-12.48l-3.7-17Zm7.5,21.8-6.47-2.18c-2.39-.81-4.37-.82-6-.05a6.69,6.69,0,0,0-3.38,4.11,6.37,6.37,0,0,0,.2,5.24q1.22,2.24,4.84,3.46l6.47,2.18Z"/><path class="cls-22" d="M114,420.46a15.27,15.27,0,0,1-2.8-8.55,20.88,20.88,0,0,1,9-16.68,15,15,0,0,1,8.65-2.28,22.31,22.31,0,0,1,9.87,2.92l9.74,5.25L131.6,432.41l-9.74-5.26A22,22,0,0,1,114,420.46Zm11.92-23q-4.92,1.49-8,7.28t-1.71,10.84q1.44,5,7.46,8.25l5.65,3.05,13.27-24.6-5.65-3Q130.86,396,125.94,397.46Z"/><path class="cls-22" d="M52.52,369.16l1.28-3.57L60.7,369l-2.53-7.28,3.85-.8.7,7.6,5.25-5.7,2.52,2.88-6.29,4.5,7.48,1.64-1.29,3.79-6.9-3.38L66,379.43l-3.81.84-.77-7.75-5.28,5.73-2.56-2.91,6.4-4.46Z"/></g></g></g></svg>